<svg width="1074" height="851" viewBox="0 0 1074 851" fill="none" xmlns="http://www.w3.org/2000/svg">
<path d="M540.446 851C831.67 851 1067.75 828.226 1067.75 800.133C1067.75 772.039 831.67 749.265 540.446 749.265C249.222 749.265 13.1387 772.039 13.1387 800.133C13.1387 828.226 249.222 851 540.446 851Z" fill="#F2F2F2"/>
<path d="M520.236 243.269C434.323 243.269 372.639 323.586 372.639 510.992C372.639 723.385 434.323 779.607 520.236 779.607C606.149 779.607 671.508 718.031 671.508 510.992C671.508 289.674 606.149 243.269 520.236 243.269ZM520.801 709.107C461.295 709.107 430.208 658.238 430.208 511.129C430.208 381.327 462.568 312.877 522.073 312.877C581.578 312.877 613.939 357.839 613.939 511.129C613.939 654.529 580.306 709.107 520.801 709.107Z" fill="#0D025B"/>
<path d="M321.194 631.467H285.673V479.048C285.673 470.952 283.466 463.188 279.537 457.464C275.609 451.739 270.28 448.523 264.725 448.523H256.401C253.65 448.523 250.926 449.313 248.385 450.847C245.843 452.381 243.534 454.629 241.589 457.464C239.643 460.298 238.1 463.663 237.048 467.367C235.995 471.07 235.453 475.039 235.453 479.048V631.467H135.259C133.198 631.467 131.172 630.691 129.377 629.214C127.583 627.736 126.081 625.608 125.017 623.036C123.953 620.463 123.363 617.534 123.305 614.532C123.247 611.529 123.723 608.556 124.686 605.901L230.729 313.441C232.051 309.795 232.853 305.796 233.085 301.686C233.317 297.576 232.976 293.44 232.081 289.528C231.186 285.616 229.756 282.008 227.878 278.923C225.999 275.839 223.712 273.34 221.153 271.579L214.892 267.272C210.032 263.927 204.474 263.433 199.371 265.892C194.267 268.352 190.007 273.576 187.473 280.483L58.1389 633.032C55.9366 639.035 54.7843 645.738 54.7843 652.545V652.545C54.7843 657.98 55.5191 663.363 56.9466 668.384C58.3741 673.406 60.4664 677.969 63.1041 681.813C65.7418 685.656 68.8732 688.705 72.3195 690.785C75.7658 692.865 79.4595 693.936 83.1898 693.936H235.453V790.316C235.453 795.121 236.102 799.879 237.364 804.318C238.626 808.757 240.476 812.791 242.807 816.188C245.139 819.586 247.907 822.281 250.954 824.12C254 825.958 257.265 826.905 260.563 826.905H260.563C263.86 826.905 267.126 825.958 270.172 824.12C273.218 822.281 275.987 819.586 278.318 816.188C280.65 812.791 282.499 808.757 283.761 804.318C285.023 799.879 285.673 795.121 285.673 790.316V693.936H321.194C326.879 693.936 332.331 690.645 336.351 684.788C340.371 678.93 342.629 670.985 342.629 662.702V662.702C342.629 654.418 340.371 646.473 336.351 640.616C332.331 634.758 326.879 631.467 321.194 631.467V631.467Z" fill="#F1982A"/>
<path d="M978.951 631.467H943.429V479.048C943.429 470.952 941.222 463.188 937.294 457.464C933.365 451.739 928.037 448.523 922.481 448.523H914.158C911.407 448.523 908.683 449.313 906.141 450.847C903.6 452.381 901.29 454.629 899.345 457.464C897.4 460.298 895.857 463.663 894.804 467.367C893.751 471.07 893.209 475.039 893.209 479.048V631.467H793.016C790.955 631.467 788.929 630.691 787.134 629.214C785.339 627.736 783.837 625.608 782.773 623.036C781.709 620.463 781.12 617.534 781.062 614.532C781.004 611.529 781.479 608.556 782.442 605.901L888.486 313.441C889.808 309.795 890.609 305.796 890.842 301.686C891.074 297.576 890.732 293.44 889.837 289.528C888.942 285.616 887.512 282.008 885.634 278.923C883.756 275.839 881.468 273.34 878.909 271.579L872.649 267.272C867.788 263.927 862.231 263.433 857.127 265.892C852.024 268.352 847.764 273.576 845.23 280.483L715.895 633.032C713.693 639.035 712.541 645.738 712.541 652.545V652.545C712.541 663.522 715.534 674.05 720.861 681.813C726.188 689.575 733.413 693.936 740.946 693.936H893.209V790.316C893.209 800.02 895.855 809.326 900.564 816.188C905.273 823.05 911.66 826.905 918.319 826.905V826.905C924.979 826.905 931.366 823.05 936.075 816.188C940.784 809.326 943.429 800.02 943.429 790.316V693.936H978.95C984.635 693.936 990.088 690.645 994.107 684.788C998.127 678.93 1000.39 670.985 1000.39 662.702V662.702C1000.39 654.418 998.127 646.473 994.107 640.616C990.088 634.758 984.635 631.467 978.951 631.467Z" fill="#F1982A"/>
<path d="M330.993 613.619H295.472V461.2C295.472 457.191 294.93 453.222 293.877 449.518C292.824 445.815 291.281 442.45 289.336 439.615C287.391 436.781 285.082 434.533 282.54 432.999C279.999 431.465 277.275 430.675 274.524 430.675H266.2C260.644 430.675 255.316 433.891 251.388 439.615C247.459 445.34 245.252 453.104 245.252 461.2V613.619H145.058C142.997 613.619 140.971 612.843 139.176 611.365C137.382 609.888 135.88 607.76 134.816 605.188C133.752 602.615 133.162 599.686 133.104 596.683C133.046 593.681 133.522 590.708 134.485 588.052L240.528 295.593C241.85 291.947 242.652 287.948 242.884 283.838C243.116 279.728 242.775 275.592 241.88 271.68C240.985 267.767 239.555 264.16 237.677 261.075C235.798 257.99 233.511 255.492 230.952 253.731L224.691 249.424C219.831 246.079 214.274 245.585 209.17 248.044C204.066 250.503 199.806 255.727 197.272 262.635L67.9379 615.184C65.7355 621.187 64.5833 627.889 64.5833 634.697V634.697C64.5833 645.674 67.576 656.202 72.9031 663.964C78.2301 671.727 85.4552 676.088 92.9888 676.088H245.252V772.468C245.252 777.273 245.901 782.031 247.163 786.47C248.425 790.909 250.275 794.942 252.607 798.34C254.938 801.738 257.706 804.433 260.753 806.271C263.799 808.11 267.064 809.057 270.362 809.057H270.362C277.021 809.057 283.408 805.202 288.117 798.34C292.826 791.478 295.472 782.172 295.472 772.468V676.088H330.993C333.808 676.088 336.595 675.28 339.196 673.71C341.797 672.14 344.16 669.84 346.15 666.939C348.141 664.039 349.719 660.596 350.797 656.806C351.874 653.017 352.428 648.955 352.428 644.853V644.853C352.428 640.752 351.874 636.69 350.797 632.9C349.719 629.111 348.141 625.668 346.15 622.767C344.16 619.867 341.797 617.566 339.196 615.997C336.595 614.427 333.808 613.619 330.993 613.619V613.619Z" stroke="#0D025B" stroke-width="2" stroke-miterlimit="10"/>
<path d="M997.324 613.619H961.802V461.2C961.802 453.104 959.595 445.34 955.667 439.615C951.738 433.891 946.41 430.675 940.854 430.675H932.531C929.78 430.675 927.056 431.465 924.514 432.999C921.973 434.533 919.663 436.781 917.718 439.615C915.773 442.45 914.23 445.815 913.177 449.518C912.124 453.222 911.583 457.191 911.583 461.2V613.619H811.389C809.328 613.619 807.302 612.843 805.507 611.365C803.712 609.888 802.21 607.76 801.146 605.188C800.082 602.615 799.493 599.686 799.435 596.683C799.377 593.681 799.852 590.708 800.815 588.052L906.859 295.593C908.181 291.947 908.982 287.948 909.215 283.838C909.447 279.728 909.105 275.592 908.21 271.68C907.315 267.767 905.885 264.16 904.007 261.075C902.129 257.99 899.841 255.492 897.282 253.731L891.022 249.424C886.161 246.079 880.604 245.585 875.5 248.044C870.397 250.503 866.137 255.727 863.603 262.635L734.268 615.184C732.066 621.187 730.914 627.889 730.914 634.697C730.914 645.674 733.907 656.202 739.234 663.964C744.561 671.727 751.786 676.088 759.319 676.088H911.583V772.468C911.583 782.172 914.228 791.478 918.937 798.34C923.646 805.202 930.033 809.057 936.692 809.057V809.057C943.352 809.057 949.739 805.202 954.448 798.34C959.157 791.478 961.802 782.172 961.802 772.468V676.088H997.324C1000.14 676.088 1002.93 675.28 1005.53 673.71C1008.13 672.14 1010.49 669.84 1012.48 666.939C1014.47 664.039 1016.05 660.596 1017.13 656.806C1018.2 653.017 1018.76 648.955 1018.76 644.853V644.853C1018.76 636.569 1016.5 628.625 1012.48 622.767C1008.46 616.91 1003.01 613.619 997.324 613.619V613.619Z" stroke="#0D025B" stroke-width="2" stroke-miterlimit="10"/>
<path d="M539.834 227.206C453.921 227.206 392.237 307.522 392.237 494.929C392.237 707.322 453.921 763.544 539.834 763.544C625.747 763.544 691.106 701.968 691.106 494.929C691.106 273.611 625.746 227.206 539.834 227.206ZM540.399 693.044C480.893 693.044 449.806 642.174 449.806 495.066C449.806 365.264 482.166 296.814 541.671 296.814C601.176 296.814 633.537 341.776 633.537 495.066C633.537 638.466 599.904 693.044 540.399 693.044V693.044Z" stroke="#0D025B" stroke-width="2" stroke-miterlimit="10"/>
<path d="M1006.5 611.123C1009.52 612.727 1012.77 613.284 1015.97 612.751C1019.17 612.217 1022.24 610.608 1024.94 608.049C1027.64 605.49 1029.9 602.052 1031.54 598.005C1033.17 593.959 1034.14 589.415 1034.36 584.731C1034.58 580.047 1034.06 575.352 1032.82 571.015C1031.59 566.679 1029.68 562.819 1027.25 559.741C1024.81 556.662 1021.92 554.449 1018.8 553.276C1015.68 552.104 1012.42 552.003 1009.27 552.981L1009.79 568.585L1004.72 555.213C999.749 558.617 995.908 564.759 994.042 572.288C993.379 574.925 992.976 577.686 992.845 580.488C992.525 587.063 993.685 593.61 996.148 599.138C998.612 604.666 1002.24 608.874 1006.5 611.123V611.123Z" fill="#57B894"/>
<path d="M1031.56 792.097C1029.78 778.827 1037.53 767.063 1045.18 759.416C1052.84 751.769 1061.78 744.256 1064.39 731.279C1068.14 712.629 1056.96 695.548 1048.26 680.819C1041.81 669.888 1036.26 657.881 1031.74 645.049C1029.93 639.903 1028.27 634.524 1027.79 628.784C1027.11 620.517 1028.93 612.29 1030.77 604.405C1036.88 578.135 1043.42 552.086 1050.39 526.257" stroke="#3F3D56" stroke-miterlimit="10"/>
<path d="M1007.35 607.105C1010.38 608.709 1013.62 609.267 1016.83 608.733C1020.03 608.2 1023.1 606.59 1025.8 604.032C1028.5 601.473 1030.76 598.035 1032.39 593.988C1034.03 589.942 1034.99 585.397 1035.22 580.714C1035.44 576.03 1034.91 571.335 1033.68 566.998C1032.44 562.661 1030.54 558.802 1028.1 555.723C1025.67 552.645 1022.78 550.432 1019.66 549.259C1016.54 548.086 1013.28 547.985 1010.12 548.964L1010.64 564.568L1005.58 551.195C1000.61 554.6 996.765 560.741 994.898 568.271C994.236 570.908 993.833 573.669 993.702 576.471C993.382 583.046 994.542 589.593 997.005 595.121C999.468 600.649 1003.1 604.856 1007.35 607.105V607.105Z" stroke="#3F3D56" stroke-miterlimit="10"/>
<path d="M1029.02 520.868C1030.21 516.091 1032.2 511.825 1034.82 508.466C1037.44 505.106 1040.59 502.76 1044 501.645L1045.71 516.478L1048.89 500.899C1053.29 500.994 1057.57 503.129 1061.09 506.995C1064.61 510.861 1067.2 516.258 1068.48 522.408C1069.76 528.557 1069.67 535.14 1068.21 541.206C1066.76 547.273 1064.02 552.509 1060.39 556.158C1056.76 559.807 1052.43 561.681 1048.02 561.509C1043.61 561.337 1039.35 559.128 1035.86 555.201C1032.37 551.274 1029.83 545.832 1028.6 539.661C1027.37 533.49 1027.52 526.909 1029.02 520.868H1029.02Z" fill="#57B894"/>
<path d="M1030.16 515.512C1031.35 510.734 1033.35 506.469 1035.96 503.109C1038.58 499.75 1041.74 497.404 1045.14 496.288L1046.85 511.122L1050.03 495.543C1054.44 495.638 1058.71 497.773 1062.23 501.639C1065.76 505.505 1068.35 510.902 1069.63 517.051C1070.91 523.201 1070.81 529.784 1069.36 535.85C1067.9 541.916 1065.16 547.152 1061.53 550.801C1057.9 554.451 1053.57 556.325 1049.16 556.153C1044.75 555.981 1040.5 553.772 1037.01 549.845C1033.52 545.918 1030.97 540.476 1029.74 534.305C1028.51 528.134 1028.66 521.553 1030.16 515.512Z" stroke="#3F3D56" stroke-miterlimit="10"/>
<path d="M1044.61 681.12C1049.41 683.658 1054.69 683.533 1059.43 680.768C1064.17 678.003 1068.05 672.791 1070.33 666.126C1072.6 659.462 1073.12 651.81 1071.77 644.629C1070.42 637.449 1067.31 631.242 1063.02 627.192L1060.58 639.164L1058.85 624.156C1058.83 624.144 1058.82 624.134 1058.8 624.126C1056.23 622.766 1053.5 622.157 1050.77 622.333C1048.04 622.509 1045.36 623.467 1042.89 625.153C1040.41 626.839 1038.19 629.219 1036.34 632.158C1034.5 635.096 1033.07 638.536 1032.14 642.279C1031.2 646.023 1030.79 649.998 1030.91 653.976C1031.03 657.954 1031.69 661.859 1032.85 665.466C1034.01 669.073 1035.64 672.312 1037.66 674.998C1039.68 677.684 1042.04 679.764 1044.61 681.12H1044.61Z" fill="#57B894"/>
<path d="M1045.6 675.694C1050.4 678.233 1055.68 678.107 1060.42 675.342C1065.16 672.577 1069.04 667.365 1071.32 660.701C1073.59 654.036 1074.11 646.384 1072.76 639.204C1071.41 632.024 1068.3 625.817 1064.01 621.767L1061.57 633.739L1059.84 618.73C1059.82 618.718 1059.81 618.709 1059.79 618.701C1057.22 617.341 1054.49 616.731 1051.76 616.907C1049.03 617.083 1046.35 618.042 1043.88 619.728C1041.4 621.413 1039.18 623.794 1037.33 626.732C1035.49 629.671 1034.06 633.11 1033.13 636.854C1032.19 640.598 1031.78 644.572 1031.9 648.551C1032.02 652.529 1032.68 656.433 1033.84 660.04C1035 663.647 1036.63 666.886 1038.65 669.572C1040.67 672.258 1043.03 674.339 1045.6 675.694H1045.6Z" stroke="#3F3D56" stroke-miterlimit="10"/>
<path d="M1022.95 731.464C1023.78 738.311 1026.19 744.535 1029.79 749.094C1033.4 753.653 1037.96 756.268 1042.73 756.502C1047.5 756.736 1052.18 754.574 1055.98 750.379C1059.78 746.184 1062.48 740.21 1063.62 733.46C1064.76 726.71 1064.27 719.594 1062.24 713.306C1060.21 707.018 1056.75 701.939 1052.45 698.922C1048.16 695.906 1043.28 695.134 1038.64 696.737C1033.99 698.339 1029.87 702.219 1026.96 707.725L1036.23 728.055L1023.56 717.264C1022.58 721.858 1022.37 726.728 1022.95 731.464V731.464Z" fill="#57B894"/>
<path d="M1023.81 727.447C1024.63 734.293 1027.05 740.518 1030.65 745.077C1034.25 749.635 1038.82 752.251 1043.59 752.485C1048.36 752.719 1053.03 750.557 1056.84 746.362C1060.64 742.166 1063.34 736.193 1064.48 729.443C1065.62 722.693 1065.13 715.577 1063.1 709.289C1061.06 703 1057.61 697.922 1053.31 694.905C1049.01 691.888 1044.13 691.117 1039.49 692.719C1034.85 694.322 1030.73 698.202 1027.82 703.708L1037.09 724.037L1024.42 713.247C1023.44 717.841 1023.23 722.71 1023.81 727.447V727.447Z" stroke="#3F3D56" stroke-miterlimit="10"/>
<path d="M9.00417 684.972C10.9937 686.026 13.1241 686.392 15.2274 686.041C17.3306 685.691 19.3493 684.633 21.1242 682.952C22.8992 681.271 24.3819 679.012 25.4555 676.354C26.5291 673.695 27.1642 670.709 27.3109 667.632C27.4575 664.555 27.1116 661.47 26.3005 658.62C25.4894 655.771 24.2352 653.235 22.6367 651.213C21.0383 649.19 19.1393 647.736 17.0894 646.966C15.0396 646.195 12.8949 646.129 10.8245 646.772L11.1667 657.024L7.83799 648.238C4.57111 650.475 2.0473 654.51 0.821195 659.457C0.385752 661.19 0.121034 663.003 0.0349405 664.845C-0.175166 669.164 0.586765 673.466 2.20527 677.098C3.82377 680.73 6.21064 683.494 9.00417 684.972V684.972Z" fill="#57B894"/>
<path d="M25.4744 803.875C24.2994 795.157 29.391 787.427 34.4203 782.403C39.4496 777.379 45.3261 772.443 47.0421 763.917C49.5083 751.663 42.1622 740.441 36.4446 730.764C32.2026 723.582 28.5598 715.693 25.5923 707.262C24.3021 703.95 23.4234 700.332 22.9965 696.575C22.5457 691.144 23.7432 685.739 24.9497 680.558C28.9689 663.298 33.266 646.184 37.8412 629.213" stroke="#3F3D56" stroke-miterlimit="10"/>
<path d="M9.56711 682.332C11.5567 683.386 13.687 683.752 15.7903 683.402C17.8936 683.051 19.9122 681.994 21.6871 680.313C23.4621 678.632 24.9448 676.373 26.0184 673.714C27.092 671.055 27.7271 668.07 27.8738 664.993C28.0204 661.915 27.6745 658.83 26.8634 655.981C26.0523 653.132 24.7981 650.596 23.1996 648.573C21.6012 646.551 19.7022 645.097 17.6524 644.326C15.6025 643.556 13.4579 643.489 11.3874 644.133L11.7296 654.384L8.40092 645.598C5.13404 647.835 2.61023 651.87 1.38412 656.817C0.948684 658.55 0.683971 660.364 0.597872 662.205C0.387752 666.525 1.14968 670.826 2.76818 674.458C4.38669 678.09 6.77356 680.855 9.56711 682.332V682.332Z" stroke="#3F3D56" stroke-miterlimit="10"/>
<path d="M23.8037 625.673C24.5845 622.534 25.895 619.732 27.6143 617.524C29.3337 615.317 31.4067 613.776 33.6422 613.043L34.7677 622.789L36.8543 612.553C39.7514 612.615 42.5599 614.018 44.8743 616.558C47.1888 619.098 48.8893 622.644 49.7305 626.684C50.5717 630.725 50.5099 635.05 49.5542 639.035C48.5985 643.021 46.7982 646.461 44.4133 648.859C42.0284 651.256 39.1823 652.488 36.2859 652.375C33.3895 652.262 30.5926 650.81 28.2992 648.23C26.0057 645.65 24.3343 642.075 23.5263 638.02C22.7183 633.966 22.8154 629.642 23.8037 625.673V625.673Z" fill="#57B894"/>
<path d="M24.5543 622.154C25.3351 619.015 26.6455 616.212 28.3649 614.005C30.0843 611.798 32.1572 610.256 34.3928 609.523L35.5183 619.269L37.6049 609.034C40.502 609.096 43.3105 610.499 45.6249 613.039C47.9393 615.579 49.6399 619.125 50.4811 623.165C51.3222 627.205 51.2605 631.531 50.3048 635.516C49.349 639.502 47.5488 642.942 45.1639 645.34C42.779 647.737 39.9329 648.968 37.0365 648.855C34.14 648.742 31.3432 647.291 29.0498 644.711C26.7563 642.131 25.0849 638.555 24.2769 634.501C23.4689 630.446 23.566 626.123 24.5543 622.154V622.154Z" stroke="#3F3D56" stroke-miterlimit="10"/>
<path d="M34.0451 730.961C37.2004 732.629 40.6665 732.547 43.7827 730.73C46.899 728.913 49.4476 725.489 50.9426 721.11C52.4376 716.731 52.7746 711.704 51.8894 706.986C51.0041 702.269 48.9585 698.191 46.1424 695.53L44.539 703.396L43.4021 693.535C43.3909 693.527 43.3792 693.521 43.3673 693.515C41.6796 692.621 39.8875 692.22 38.0934 692.336C36.2993 692.451 34.5384 693.081 32.9113 694.188C31.2843 695.296 29.8229 696.859 28.6108 698.79C27.3988 700.721 26.4597 702.981 25.8473 705.441C25.2349 707.901 24.9611 710.513 25.0417 713.127C25.1223 715.741 25.5557 718.306 26.317 720.676C27.0783 723.046 28.1527 725.175 29.4787 726.939C30.8048 728.704 32.3565 730.071 34.0451 730.961V730.961Z" fill="#57B894"/>
<path d="M34.6955 727.397C37.8507 729.064 41.3168 728.982 44.4331 727.165C47.5494 725.348 50.0979 721.924 51.5929 717.546C53.088 713.167 53.425 708.139 52.5397 703.422C51.6544 698.704 49.6088 694.626 46.7927 691.965L45.1894 699.831L44.0525 689.97C44.0412 689.962 44.0296 689.956 44.0177 689.951C42.3303 689.059 40.5389 688.66 38.7458 688.777C36.9526 688.894 35.1928 689.524 33.5669 690.632C30.2831 692.869 27.7438 696.916 26.5076 701.882C25.2714 706.847 25.4395 712.325 26.9751 717.11C28.5106 721.895 31.2877 725.595 34.6955 727.397V727.397Z" stroke="#3F3D56" stroke-miterlimit="10"/>
<path d="M19.8148 764.038C20.3573 768.537 21.9448 772.626 24.3109 775.621C26.6771 778.616 29.6781 780.335 32.8106 780.489C35.9431 780.642 39.0167 779.222 41.5158 776.466C44.0149 773.709 45.7875 769.784 46.5365 765.35C47.2855 760.915 46.9652 756.24 45.6293 752.108C44.2935 747.976 42.0233 744.64 39.1996 742.658C36.3758 740.676 33.1702 740.169 30.1204 741.222C27.0706 742.275 24.362 744.824 22.4488 748.441L28.5389 761.798L20.2176 754.709C19.5724 757.727 19.4342 760.926 19.8148 764.038V764.038Z" fill="#57B894"/>
<path d="M20.3777 761.399C20.9202 765.897 22.5077 769.987 24.8738 772.982C27.24 775.977 30.241 777.695 33.3735 777.849C36.506 778.003 39.5796 776.582 42.0787 773.826C44.5778 771.07 46.3504 767.145 47.0994 762.71C47.8484 758.275 47.528 753.6 46.1922 749.469C44.8564 745.337 42.5862 742 39.7625 740.018C36.9387 738.036 33.7331 737.529 30.6833 738.582C27.6335 739.635 24.9248 742.184 23.0117 745.802L29.1018 759.159L20.7805 752.069C20.1353 755.087 19.9971 758.287 20.3777 761.399V761.399Z" stroke="#3F3D56" stroke-miterlimit="10"/>
<path d="M480.771 496.874C490.156 496.874 497.764 482.527 497.764 464.829C497.764 447.13 490.156 432.783 480.771 432.783C471.385 432.783 463.777 447.13 463.777 464.829C463.777 482.527 471.385 496.874 480.771 496.874Z" fill="#0D025B"/>
<path d="M573.237 497.602C582.622 497.602 590.231 483.255 590.231 465.557C590.231 447.859 582.622 433.511 573.237 433.511C563.851 433.511 556.243 447.859 556.243 465.557C556.243 483.255 563.851 497.602 573.237 497.602Z" fill="#0D025B"/>
<path d="M560.242 560.237C560.242 574.716 546.367 586.456 529.253 586.456C512.139 586.456 498.264 574.716 498.264 560.237C498.264 547.696 508.67 537.208 522.575 534.644C524.789 534.219 527.02 534.01 529.253 534.018C532.994 534 536.726 534.587 540.379 535.766C551.995 539.538 560.242 549.079 560.242 560.237Z" fill="#0D025B"/>
<path d="M484.769 489.591C494.154 489.591 501.763 475.244 501.763 457.546C501.763 439.847 494.154 425.5 484.769 425.5C475.384 425.5 467.775 439.847 467.775 457.546C467.775 475.244 475.384 489.591 484.769 489.591Z" stroke="#3F3D56" stroke-miterlimit="10"/>
<path d="M577.235 490.319C586.621 490.319 594.229 475.972 594.229 458.274C594.229 440.576 586.621 426.228 577.235 426.228C567.85 426.228 560.242 440.576 560.242 458.274C560.242 475.972 567.85 490.319 577.235 490.319Z" stroke="#3F3D56" stroke-miterlimit="10"/>
<path d="M533.251 579.173C550.366 579.173 564.24 567.434 564.24 552.954C564.24 538.473 550.366 526.735 533.251 526.735C516.137 526.735 502.263 538.473 502.263 552.954C502.263 567.434 516.137 579.173 533.251 579.173Z" stroke="#0D025B" stroke-miterlimit="10"/>
<path d="M540.749 537.951C540.757 539.783 540.285 541.55 539.429 542.892C539.025 543.534 538.534 544.048 537.987 544.401C537.44 544.754 536.848 544.939 536.25 544.943H526.254C525.022 544.88 523.857 544.109 523.015 542.799C522.172 541.489 521.719 539.746 521.756 537.951C521.75 536.531 522.036 535.14 522.575 533.958C524.787 533.504 527.019 533.281 529.253 533.29C532.999 533.272 536.733 533.897 540.379 535.154C540.625 536.043 540.751 536.992 540.749 537.951V537.951Z" fill="white"/>
<path d="M484.769 456.089C487.53 456.089 489.767 452.828 489.767 448.806C489.767 444.784 487.53 441.523 484.769 441.523C482.009 441.523 479.771 444.784 479.771 448.806C479.771 452.828 482.009 456.089 484.769 456.089Z" fill="white"/>
<path d="M577.735 456.089C580.496 456.089 582.733 452.828 582.733 448.806C582.733 444.784 580.496 441.523 577.735 441.523C574.975 441.523 572.737 444.784 572.737 448.806C572.737 452.828 574.975 456.089 577.735 456.089Z" fill="white"/>
<path opacity="0.3" d="M582.733 524.55C585.494 524.55 587.732 521.289 587.732 517.267C587.732 513.244 585.494 509.984 582.733 509.984C579.973 509.984 577.735 513.244 577.735 517.267C577.735 521.289 579.973 524.55 582.733 524.55Z" fill="#F1982A"/>
<path opacity="0.3" d="M460.778 524.55C463.538 524.55 465.776 521.289 465.776 517.267C465.776 513.244 463.538 509.984 460.778 509.984C458.017 509.984 455.78 513.244 455.78 517.267C455.78 521.289 458.017 524.55 460.778 524.55Z" fill="#F1982A"/>
</svg>
