<?xml version="1.0" encoding="utf-8"?>
<!-- Generator: Adobe Illustrator 24.2.3, SVG Export Plug-In . SVG Version: 6.00 Build 0)  -->
<svg version="1.1" id="Layer_1" xmlns="http://www.w3.org/2000/svg" xmlns:xlink="http://www.w3.org/1999/xlink" x="0px" y="0px"
	 viewBox="0 0 960 560" style="enable-background:new 0 0 960 560;" xml:space="preserve">
<style type="text/css">
	.st0{fill:#0D025B;}
	.st1{fill:#FF9810;}
</style>
<g>
	<g>
		<path class="st0" d="M668.6,205.4l-150.9,87.2c-24.4,14.1-49.5,10.8-75.7,2.3c0,0-0.1,0-0.1,0c-24.9-8.1-48.8-20.7-61.8-47
			c-1.9-3.9-3.5-7.9-4.9-11.9c8.9,13,20.5,22.9,33.6,29.1c7,3.4,14.3,5.7,21.8,6.9c0,0,0,0,0,0c17.5,2.8,35.9-0.1,52.6-9.8
			l99.3-57.4l-16.1-32.5L668.6,205.4z"/>
	</g>
</g>
<g>
	<g>
		<path class="st0" d="M262.3,182.6l150.9-87.2c24.4-14.1,49.5-10.8,75.7-2.3c0,0,0.1,0,0.1,0c24.9,8.1,48.8,20.7,61.8,47
			c1.9,3.9,3.5,7.9,4.9,11.9c-8.9-13-20.5-22.8-33.6-29.1c-7-3.4-14.3-5.7-21.8-6.9c0,0,0,0,0,0c-17.5-2.8-35.9,0.1-52.6,9.8
			l-99.3,57.4l16.1,32.5L262.3,182.6z"/>
	</g>
</g>
<polygon class="st1" points="371.8,199.8 503.9,170.4 408.8,247.7 416.9,210.8 "/>
<path class="st1" d="M663.4,355h13.8v58.3h-13.6l-0.7-8.5c-3.3,6.9-12.4,10.2-18.9,10.3c-17.3,0.1-30.1-10.5-30.1-31
	c0-20.1,13.4-30.7,30.4-30.5c7.8,0,15.3,3.7,18.6,9.5L663.4,355z M628.3,384.2c0,11.1,7.7,17.8,17.3,17.8c22.7,0,22.7-35.4,0-35.4
	C636,366.5,628.3,373,628.3,384.2z"/>
<path class="st1" d="M746.7,355l-35.6,82.7h-15.9l10.9-25.3L682.8,355h16.8l8.9,25.2l5.6,16.4l6-16.1l10.7-25.6H746.7z"/>
<polygon class="st1" points="217.2,360.5 261,374.4 217.2,389.1 227.6,373.5 "/>
<path class="st0" d="M314.8,413.7v-30.5c0-8.9-4.9-15.6-14.1-15.6c-8.9,0-14.9,7.5-14.9,16.3v29.8h-14.3v-58.5h12.9l0.9,7.9
	c5.9-5.8,11.8-8.8,19.2-8.8c13.7,0,24.7,10.3,24.7,28.6v30.7H314.8z"/>
<path class="st0" d="M387.9,355.3h13.8v58.3h-13.6l-0.7-8.5c-3.3,6.9-12.4,10.2-18.9,10.3c-17.3,0.1-30.1-10.5-30.1-31
	c0-20.1,13.4-30.7,30.4-30.5c7.8,0,15.3,3.7,18.6,9.5L387.9,355.3z M352.9,384.4c0,11.1,7.7,17.8,17.3,17.8c22.7,0,22.7-35.4,0-35.4
	C360.6,366.8,352.9,373.3,352.9,384.4z"/>
<path class="st0" d="M470.3,355.3l-35.6,82.7h-15.9l10.9-25.3l-23.3-57.4h16.8l8.9,25.2l5.6,16.4l6-16.1l10.7-25.6H470.3z"/>
<path class="st0" d="M524.2,355.3H538v58.3h-13.6l-0.7-8.5c-3.3,6.9-12.4,10.2-18.9,10.3c-17.3,0.1-30.1-10.5-30.1-31
	c0-20.1,13.4-30.7,30.4-30.5c7.8,0,15.3,3.7,18.6,9.5L524.2,355.3z M489.1,384.4c0,11.1,7.7,17.8,17.3,17.8c22.7,0,22.7-35.4,0-35.4
	C496.8,366.8,489.1,373.3,489.1,384.4z"/>
<path class="st0" d="M214.3,380.8v-14.6v-19.1h46.5v-15.1h-62c0,27.6,0,55.3,0,82.8h62v-15.4h-46.5V380.8z"/>
<path class="st1" d="M582.9,391.4h-21.4v22.2h-14.3V338c11.9,0,23.8-0.1,35.6-0.1C619.8,337.9,619.9,391.4,582.9,391.4z
	 M561.5,378.3h21.4c18.3,0,18.1-26.8,0-26.8h-21.4V378.3z"/>
</svg>
