<svg width="1178" height="560" viewBox="0 0 1178 560" fill="none" xmlns="http://www.w3.org/2000/svg">
<path d="M492 289.417L348.639 359.697C325.459 371.062 301.613 368.402 276.722 361.551H276.627C252.971 355.023 230.265 344.868 217.914 323.671C216.109 320.527 214.589 317.304 213.259 314.08C221.715 324.557 232.735 332.536 245.18 337.533C251.831 340.274 258.766 342.127 265.891 343.095C282.517 345.351 299.998 343.014 315.863 335.196L410.202 288.934L394.906 262.74L492 289.417Z" fill="white"/>
<path d="M106 271.041L249.361 200.761C272.542 189.397 296.387 192.056 321.278 198.907H321.373C345.029 205.435 367.735 215.591 380.086 236.787C381.891 239.931 383.411 243.155 384.741 246.379C376.286 235.901 365.265 228.002 352.82 222.925C346.169 220.185 339.234 218.331 332.109 217.364C315.483 215.107 298.003 217.444 282.137 225.262L187.798 271.525L203.094 297.719L106 271.041Z" fill="white"/>
<path d="M229 278.581L355 255L264.291 317L272.017 287.404L229 278.581Z" fill="white"/>
<path d="M1015.39 274.391H1030V332.214H1015.61L1014.86 323.784C1011.37 330.627 1001.74 333.9 994.859 333.999C976.548 334.098 963 323.585 963 303.253C963 283.318 977.183 272.804 995.177 273.003C1003.43 273.003 1011.37 276.672 1014.86 282.425L1015.39 274.391ZM978.242 303.352C978.242 314.361 986.392 321.007 996.553 321.007C1020.58 321.007 1020.58 285.896 996.553 285.896C986.392 285.797 978.242 292.244 978.242 303.352Z" fill="white"/>
<path d="M1104 274.1L1066.12 357H1049.2L1060.79 331.639L1036 274.1H1053.88L1063.35 299.361L1069.31 315.801L1075.69 299.662L1087.08 274H1104V274.1Z" fill="white"/>
<path d="M542 280L588 293.608L542 308L552.922 292.727L542 280Z" fill="white"/>
<path d="M645.527 333V302.192C645.527 293.202 640.262 286.434 630.376 286.434C620.813 286.434 614.366 294.01 614.366 302.899V333H599V273.909H612.861L613.828 281.889C620.168 276.03 626.508 273 634.459 273C649.18 273 661 283.404 661 301.889V332.899H645.527V333Z" fill="white"/>
<path d="M723.175 274.391H738V332.214H723.39L722.638 323.784C719.093 330.627 709.318 333.9 702.335 333.999C683.75 334.098 670 323.585 670 303.253C670 283.318 684.395 272.804 702.657 273.003C711.036 273.003 719.093 276.672 722.638 282.425L723.175 274.391ZM685.577 303.253C685.577 314.262 693.848 320.907 704.161 320.907C728.547 320.907 728.547 285.797 704.161 285.797C693.848 285.797 685.577 292.244 685.577 303.253Z" fill="white"/>
<path d="M811 274.1L773.116 357H756.196L767.795 331.639L743 274.1H760.878L770.349 299.361L776.308 315.801L782.693 299.662L794.08 274H811V274.1Z" fill="white"/>
<path d="M868.175 274.391H883V332.214H868.39L867.638 323.784C864.093 330.627 854.318 333.9 847.335 333.999C828.75 334.098 815 323.585 815 303.253C815 283.318 829.395 272.804 847.657 273.003C856.036 273.003 864.093 276.672 867.638 282.425L868.175 274.391ZM830.469 303.253C830.469 314.262 838.741 320.907 849.054 320.907C873.439 320.907 873.439 285.797 849.054 285.797C838.741 285.797 830.469 292.244 830.469 303.253Z" fill="white"/>
<path d="M538.5 299.918V285.283V266.136H588V251H522C522 278.667 522 306.434 522 334H588V318.563H538.5V299.918Z" fill="white"/>
<path d="M930.29 310.712H907.338V333H892V257.1C904.763 257.1 917.527 257 930.183 257C969.867 257 969.975 310.712 930.29 310.712ZM907.338 297.56H930.29C949.918 297.56 949.703 270.654 930.29 270.654H907.338V297.56Z" fill="white"/>
</svg>
