<svg width="572" height="473" viewBox="0 0 572 473" fill="none" xmlns="http://www.w3.org/2000/svg">
<rect width="572" height="473" fill="white"/>
<path d="M489.3 247.629L338.4 334.829C314 348.929 288.9 345.629 262.7 337.129H262.6C237.7 329.029 213.8 316.429 200.8 290.129C198.9 286.229 197.3 282.229 195.9 278.229C204.8 291.229 216.4 301.129 229.5 307.329C236.5 310.729 243.8 313.029 251.3 314.229C268.8 317.029 287.2 314.129 303.9 304.429L403.2 247.029L387.1 214.529L489.3 247.629Z" fill="#0D025B"/>
<path d="M83 224.829L233.9 137.629C258.3 123.529 283.4 126.829 309.6 135.329H309.7C334.6 143.429 358.5 156.029 371.5 182.329C373.4 186.229 375 190.229 376.4 194.229C367.5 181.229 355.9 171.429 342.8 165.129C335.8 161.729 328.5 159.429 321 158.229C303.5 155.429 285.1 158.329 268.4 168.029L169.1 225.429L185.2 257.929L83 224.829Z" fill="#0D025B"/>
<path d="M192.5 242.029L324.6 212.629L229.5 289.929L237.6 253.029L192.5 242.029Z" fill="#FF9810"/>
</svg>
